<svg width="1299" height="1299" xmlns="http://www.w3.org/2000/svg" xmlns:xlink="http://www.w3.org/1999/xlink" xml:space="preserve" overflow="hidden"><defs><clipPath id="clip0"><rect x="1665" y="854" width="1299" height="1299"/></clipPath></defs><g clip-path="url(#clip0)" transform="translate(-1665 -854)">
<style>                           .favicon-bg{fill:#000}.favicon-fg{fill:#FFF}
@media(prefers-color-scheme:dark){.favicon-bg{fill:#FFF}.favicon-fg{fill:#000}}</style>
<path class="favicon-bg" d="M1665 1070.5C1665 950.932 1761.93 854 1881.5 854L2747.5 854C2867.07 854 2964 950.932 2964 1070.5L2964 1936.5C2964 2056.07 2867.07 2153 2747.5 2153L1881.5 2153C1761.93 2153 1665 2056.07 1665 1936.5Z" fill-rule="evenodd"/>
<path class="favicon-fg" d="M2313.38 1009C2336.89 1009 2352.1 1024.75 2358.99 1056.26L2359.32 1310.68 2362.46 1311.24C2396.57 1319.33 2428.61 1339.58 2458.57 1371.96 2493.11 1402.73 2511.25 1449.13 2513 1511.16L2513 1779.63C2513 1803.46 2500.03 1817.46 2474.08 1821.64 2449.03 1821.64 2434.44 1808.24 2430.34 1781.44L2430.34 1504.64C2430.34 1473.28 2419.09 1446.34 2396.6 1423.8 2386.06 1413.24 2374.12 1405.14 2360.8 1399.5L2359.44 1399 2360.14 1944.41C2360.14 1973.94 2346.75 1991.8 2319.99 1998 2290.32 1998 2274.99 1980.36 2274.01 1945.07L2274.01 1398.16 2273.19 1398.45C2259.78 1404.08 2247.46 1412.53 2236.21 1423.8 2214.43 1445.63 2203.24 1469.76 2202.67 1496.17L2202.67 1779.63C2202.67 1803.48 2189.25 1817.49 2162.42 1821.64 2138.25 1821.64 2124.11 1808.24 2120 1781.44L2120 1504.64C2120 1453.99 2139.48 1408.33 2178.43 1367.68 2203 1343.06 2231.64 1325.95 2264.36 1316.35L2274.01 1314.02 2274.01 1060.25C2274.01 1032.38 2287.13 1015.3 2313.38 1009Z" fill-rule="evenodd"/>
<path class="favicon-fg" d="M2002.91 1038C2026.13 1038 2039.82 1051.07 2044 1077.2 2044 1102.85 2031.69 1117.73 2007.07 1121.83L1966.74 1125.27C1955.3 1127.3 1948.3 1129.59 1945.77 1132.12 1936.56 1138.26 1931.4 1148.63 1930.28 1163.25L1930.28 1225.8 1931.28 1268.16 1929.11 1335.82C1929.11 1362.08 1924.91 1387.8 1916.51 1413 1909.26 1441.2 1896.44 1464.92 1878.03 1484.15 1871.35 1490.83 1865.7 1495.7 1861.08 1498.77 1859.36 1500.51 1853.41 1501.79 1843.25 1502.61 1857.35 1505.37 1869.34 1511.68 1879.19 1521.54 1896.35 1538.69 1908.11 1560.83 1914.49 1587.96L1921 1625.14 1927.69 1661.57 1931.28 1736.58 1930.28 1775.47 1930.28 1826.07 1930.28 1841.15C1930.28 1851.52 1936.29 1862.4 1948.3 1873.79 1961.41 1881.29 1979.69 1885.04 2003.15 1885.04 2026.23 1885.04 2039.85 1898.56 2044 1925.61 2044 1951.38 2030.8 1965.85 2004.39 1969 1962.3 1969 1927.89 1959.81 1901.17 1941.44 1876.18 1924.22 1858.66 1892.08 1848.61 1845.03L1849.77 1784.12 1850.92 1732.07 1850.92 1706.13 1848.74 1669.74 1844.1 1639.71 1836.56 1609.56C1834.62 1600.49 1816.81 1586.14 1783.12 1566.5L1714 1538.34 1714 1469.94 1783.53 1441.59C1812.87 1426.93 1830.72 1411.62 1837.09 1395.66L1847.53 1335.36 1850.92 1272.25 1849.77 1223.07 1848.61 1162.36C1848.61 1143.72 1852.14 1127.33 1859.2 1113.2 1864.65 1100.76 1870.56 1090.82 1876.92 1083.39 1879.58 1080.05 1885.93 1074.74 1895.96 1067.46 1897.56 1066.66 1903.65 1064.22 1914.24 1060.14L1942.16 1046.8C1961.26 1042.66 1981.51 1039.72 2002.91 1038Z" fill-rule="evenodd"/>
<path class="favicon-fg" d="M2621.46 1038C2664.59 1038 2699.64 1047.6 2726.59 1066.79 2751.04 1083.13 2769.04 1114.44 2780.59 1160.73L2779.41 1223.07 2778.43 1265.65 2778.43 1312.65 2779.59 1340.33C2779.59 1344.78 2780.51 1351.89 2782.34 1361.68 2783.67 1367.63 2785.9 1376.94 2789.05 1389.6 2793.36 1409.11 2818.53 1429.85 2864.54 1451.85L2915 1469.62 2915 1538.24 2842.99 1567.11C2813.45 1579.9 2796.88 1593.79 2793.29 1608.79L2782.78 1673.14 2779.59 1733.88 2779.59 1797.55 2780.74 1852.31C2780.74 1882.6 2763.02 1912.55 2727.59 1942.17 2714.06 1950.31 2700.07 1956.44 2685.63 1960.55 2666.95 1966.18 2647.26 1969 2626.58 1969 2603.32 1969 2590.12 1955.48 2587 1928.45 2587 1909 2598.25 1894.65 2620.76 1885.41L2662.88 1881.79C2667.54 1880.85 2671.02 1879.23 2673.31 1876.91 2676.92 1876.91 2680.1 1875.75 2682.88 1873.43 2693.81 1866.74 2699.27 1856.11 2699.27 1841.52L2698.11 1788.92 2698.11 1737.88 2698.11 1700.75C2698.11 1676.99 2698.93 1663.05 2700.58 1658.93L2703.95 1631.89 2713.8 1586.33C2718.5 1562.64 2730.4 1541.23 2749.49 1522.11L2786.08 1504.76 2752.84 1488.11C2734.92 1470.15 2722.08 1446.3 2714.31 1416.53L2701.69 1344.78 2698.11 1267.2 2698.11 1217.89 2699.27 1164.69C2699.27 1155.1 2693.37 1144.7 2681.55 1133.49 2668.16 1125.82 2649.83 1121.98 2626.58 1121.98 2603.28 1121.98 2590.08 1108.09 2587 1080.32 2587 1062.58 2598.49 1048.47 2621.46 1038Z" fill-rule="evenodd"/></g></svg>